# This file uses centimeters as units for non-parametric coordinates.

mtllib diamond.mtl
v -0.465864 -0.004015 -0.854885
v -0.854885 -0.004015 0.465864
v 0.465865 -0.004015 0.854885
v 0.854885 -0.004015 -0.465865
v 0.000000 0.918702 0.000000
v 0.000000 -0.926732 0.000000
vt 0.250000 0.500000
vt 0.375000 0.500000
vt 0.500000 0.500000
vt 0.625000 0.500000
vt 0.750000 0.500000
vt 0.500000 1.000000
vt 0.250000 0.500000
vt 0.375000 0.500000
vt 0.500000 1.000000
vt 0.500000 0.500000
vt 0.625000 0.500000
vt 0.750000 0.500000
vn 0.768846 -0.597990 0.226460
vn 0.768846 -0.597990 0.226460
vn 0.768846 -0.597990 0.226460
vn 0.226460 -0.597990 -0.768846
vn 0.226460 -0.597990 -0.768846
vn 0.226460 -0.597989 -0.768846
vn -0.768846 -0.597990 -0.226460
vn -0.768846 -0.597990 -0.226460
vn -0.768846 -0.597990 -0.226460
vn -0.226460 -0.597990 0.768846
vn -0.226460 -0.597990 0.768846
vn -0.226460 -0.597990 0.768846
vn 0.768846 0.597989 0.226460
vn 0.768846 0.597990 0.226460
vn 0.768846 0.597990 0.226460
vn 0.226460 0.597990 -0.768846
vn 0.226460 0.597990 -0.768846
vn 0.226460 0.597990 -0.768846
vn -0.768846 0.597990 -0.226460
vn -0.768846 0.597990 -0.226460
vn -0.768846 0.597990 -0.226460
vn -0.226460 0.597990 0.768846
vn -0.226460 0.597990 0.768846
vn -0.226460 0.597990 0.768846
usemtl initialShadingGroup
f 1/1/1 5/6/2 2/2/3
f 2/2/4 5/6/5 3/3/6
f 3/3/7 5/6/8 4/4/9
f 4/4/10 5/6/11 1/5/12
f 1/7/13 2/8/14 6/9/15
f 2/8/16 3/10/17 6/9/18
f 3/10/19 4/11/20 6/9/21
f 4/11/22 1/12/23 6/9/24
