# This file uses centimeters as units for non-parametric coordinates.

mtllib real_diamond.mtl
g default
v -0.530387 0.013053 0.085078
v 2.338840 0.003539 0.000000
v 2.240160 0.123188 0.779889
v 1.959044 0.464036 1.441241
v 1.538292 0.974189 1.883169
v 1.041963 1.575976 2.038393
v 0.545619 2.177783 1.883280
v 0.124826 2.687984 1.441447
v -0.156350 3.028905 0.780161
v -0.255103 3.148641 0.000097
v -0.156396 3.028963 -0.779981
v 0.124739 2.688090 -1.441311
v 0.545505 2.177921 -1.883208
v 1.041840 1.576126 -2.038396
v 1.538176 0.974327 -1.883246
v 1.958955 0.464143 -1.441381
v 2.240111 0.123246 -0.780071
v 2.455807 0.100007 0.000000
v 2.357124 0.219656 0.779889
v 2.076009 0.560505 1.441241
v 1.655257 1.070657 1.883169
v 1.158928 1.672445 2.038393
v 0.662586 2.274251 1.883280
v 0.241793 2.784452 1.441447
v -0.039383 3.125373 0.780161
v -0.138136 3.245109 0.000097
v -0.039431 3.125432 -0.779981
v 0.241706 2.784559 -1.441311
v 0.662470 2.274391 -1.883208
v 1.158804 1.672595 -2.038396
v 1.655143 1.070795 -1.883246
v 2.075922 0.560611 -1.441381
v 2.357078 0.219714 -0.780071
v 2.417269 1.105504 0.473863
v 1.920223 1.708160 1.255180
v 1.217235 2.560517 1.255258
v 0.919243 2.921831 0.942363
v 0.720119 3.163260 0.474056
v 0.720086 3.163301 -0.630798
v 1.217156 2.560616 -1.412077
v 1.920141 1.708260 -1.412104
v 2.417235 1.105545 -0.630861
v -0.519621 0.000000 0.000000
v -0.561052 0.050236 0.157223
v -0.606952 0.105889 0.205433
v -0.661097 0.171538 0.222367
v -0.715242 0.237187 0.205446
v -0.761146 0.292845 0.157245
v -0.791820 0.330037 0.085107
v -0.802593 0.343097 0.000010
v -0.791824 0.330042 -0.085088
v -0.761155 0.292857 -0.157233
v -0.715254 0.237204 -0.205438
v -0.661110 0.171553 -0.222369
v -0.606965 0.105903 -0.205443
v -0.561061 0.050248 -0.157241
v -0.530392 0.013058 -0.085100
v 1.567413 2.135936 -0.076436
v -0.661107 0.171548 -0.000001
vt 0.038071 0.308633
vt 0.146468 0.146425
vt 0.691378 0.038075
vt 0.308689 0.038048
vt 0.796875 0.500000
vt 0.792969 0.375000
vt 0.820313 0.250000
vt 0.812500 0.000000
vt 0.859375 0.500000
vt 0.855469 0.375000
vt 0.882813 0.250000
vt 0.875000 0.000000
vt 0.921875 0.500000
vt 0.917969 0.375000
vt 0.945313 0.250000
vt 0.937500 0.000000
vt 0.984375 0.500000
vt 0.980469 0.375000
vt 0.007813 0.250000
vt 0.000000 0.000000
vt 0.046875 0.500000
vt 0.042969 0.375000
vt 0.070313 0.250000
vt 0.062500 0.000000
vt 0.105469 0.375000
vt 0.109375 0.500000
vt 0.132813 0.250000
vt 0.125000 0.000000
vt 0.167969 0.375000
vt 0.171875 0.500000
vt 0.195313 0.250000
vt 0.187500 0.000000
vt 0.230469 0.375000
vt 0.234375 0.500000
vt 0.257813 0.250000
vt 0.250000 0.000000
vt 0.292969 0.375000
vt 0.296875 0.500000
vt 0.320313 0.250000
vt 0.312500 0.000000
vt 0.355469 0.375000
vt 0.359375 0.500000
vt 0.445313 0.250000
vt 0.437500 0.000000
vt 0.492188 0.250000
vt 0.484375 0.500000
vt 0.382813 0.250000
vt 0.375000 0.000000
vt 0.417969 0.375000
vt 0.421875 0.500000
vt 0.000000 0.000000
vt 1.000000 0.000000
vt 0.500000 1.000000
vt 0.000000 0.000000
vt 1.000000 0.000000
vt 0.500000 1.000000
vt 0.000000 0.000000
vt 1.000000 0.000000
vt 0.500000 1.000000
vt 0.000000 0.000000
vt 1.000000 0.000000
vt 0.500000 1.000000
vt 0.000000 0.000000
vt 1.000000 0.000000
vt 0.500000 1.000000
vt 0.000000 0.000000
vt 1.000000 0.000000
vt 0.500000 1.000000
vt 0.000000 0.000000
vt 1.000000 0.000000
vt 0.500000 1.000000
vt 0.000000 0.000000
vt 1.000000 0.000000
vt 0.500000 1.000000
vt 0.000000 0.000000
vt 1.000000 0.000000
vt 0.500000 1.000000
vt 0.000000 0.000000
vt 1.000000 0.000000
vt 0.500000 1.000000
vt 0.000000 0.000000
vt 1.000000 0.000000
vt 0.500000 1.000000
vt 0.000000 0.000000
vt 1.000000 0.000000
vt 0.500000 1.000000
vt 0.000000 0.000000
vt 1.000000 0.000000
vt 0.500000 1.000000
vt 0.000000 0.000000
vt 1.000000 0.000000
vt 0.500000 1.000000
vt 0.000000 0.000000
vt 1.000000 0.000000
vt 0.500000 1.000000
vt 0.000000 0.000000
vt 1.000000 0.000000
vt 0.500000 1.000000
vt 0.000000 0.000000
vt 1.000000 0.000000
vt 0.500000 1.000000
vt 0.000000 0.000000
vt 1.000000 0.000000
vt 0.500000 1.000000
vt 0.000000 0.000000
vt 1.000000 0.000000
vt 0.500000 1.000000
vt 0.000000 0.000000
vt 1.000000 0.000000
vt 0.500000 1.000000
vt 0.000000 0.000000
vt 1.000000 0.000000
vt 0.500000 1.000000
vt 0.000000 0.000000
vt 1.000000 0.000000
vt 0.500000 1.000000
vt 0.000000 0.000000
vt 1.000000 0.000000
vt 0.500000 1.000000
vt 0.000000 0.000000
vt 1.000000 0.000000
vt 0.500000 1.000000
vt 0.000000 0.000000
vt 1.000000 0.000000
vt 0.500000 1.000000
vn 0.001224 -0.988411 0.151795
vn 0.001224 -0.988411 0.151795
vn 0.001224 -0.988411 0.151795
vn 0.001224 -0.988411 0.151795
vn 0.001224 -0.988411 0.151795
vn 0.001224 -0.988411 0.151795
vn -0.072690 -0.898787 0.432318
vn -0.072690 -0.898787 0.432318
vn -0.072690 -0.898787 0.432318
vn -0.072690 -0.898787 0.432318
vn -0.072690 -0.898787 0.432318
vn -0.072690 -0.898787 0.432318
vn -0.209301 -0.733149 0.647060
vn -0.209301 -0.733149 0.647060
vn -0.209301 -0.733149 0.647060
vn -0.209301 -0.733149 0.647060
vn -0.209301 -0.733149 0.647060
vn -0.209301 -0.733149 0.647060
vn -0.387800 -0.516722 0.763288
vn -0.387800 -0.516722 0.763288
vn -0.387800 -0.516722 0.763288
vn -0.387800 -0.516722 0.763288
vn -0.387800 -0.516722 0.763288
vn -0.387800 -0.516722 0.763288
vn 0.624051 -0.756649 0.195046
vn 0.624051 -0.756649 0.195046
vn 0.624051 -0.756649 0.195046
vn 0.624051 -0.756649 0.195046
vn 0.624051 -0.756649 0.195046
vn 0.624051 -0.756649 0.195046
vn 0.529071 -0.641487 0.555498
vn 0.529071 -0.641487 0.555498
vn 0.529071 -0.641487 0.555498
vn 0.529071 -0.641487 0.555498
vn 0.529071 -0.641487 0.555498
vn 0.529071 -0.641487 0.555498
vn 0.353536 -0.428655 0.831425
vn 0.353536 -0.428655 0.831425
vn 0.353536 -0.428655 0.831425
vn 0.353536 -0.428655 0.831425
vn 0.353536 -0.428655 0.831425
vn 0.353536 -0.428655 0.831425
vn 0.124177 -0.150562 0.980771
vn 0.124177 -0.150562 0.980771
vn 0.124177 -0.150562 0.980771
vn 0.124177 -0.150562 0.980771
vn 0.124177 -0.150562 0.980771
vn 0.124177 -0.150562 0.980771
vn -0.124087 0.150453 0.980799
vn -0.124087 0.150453 0.980799
vn -0.124087 0.150453 0.980799
vn -0.124087 0.150453 0.980799
vn -0.124087 0.150453 0.980799
vn -0.124087 0.150453 0.980799
vn -0.353460 0.428563 0.831505
vn -0.353460 0.428563 0.831505
vn -0.353460 0.428563 0.831505
vn -0.353460 0.428563 0.831505
vn -0.353460 0.428563 0.831505
vn -0.353460 0.428563 0.831505
vn -0.529020 0.641426 0.555617
vn -0.529020 0.641426 0.555617
vn -0.529020 0.641426 0.555617
vn -0.529020 0.641426 0.555617
vn -0.529020 0.641426 0.555617
vn -0.529020 0.641426 0.555617
vn -0.624039 0.756634 0.195140
vn -0.624039 0.756634 0.195140
vn -0.624039 0.756634 0.195140
vn -0.624039 0.756634 0.195140
vn -0.624039 0.756634 0.195140
vn -0.624039 0.756634 0.195140
vn -0.624051 0.756649 -0.195046
vn -0.624051 0.756649 -0.195046
vn -0.624051 0.756649 -0.195046
vn -0.624051 0.756649 -0.195046
vn -0.624051 0.756649 -0.195046
vn -0.624051 0.756649 -0.195046
vn -0.529054 0.641467 -0.555538
vn -0.529054 0.641467 -0.555538
vn -0.529054 0.641467 -0.555538
vn -0.529054 0.641467 -0.555538
vn -0.529054 0.641467 -0.555538
vn -0.529054 0.641467 -0.555538
vn -0.353511 0.428624 -0.831451
vn -0.353511 0.428624 -0.831451
vn -0.353511 0.428624 -0.831451
vn -0.353511 0.428624 -0.831451
vn -0.353511 0.428624 -0.831451
vn -0.353511 0.428624 -0.831451
vn -0.124147 0.150526 -0.980780
vn -0.124147 0.150526 -0.980780
vn -0.124147 0.150526 -0.980780
vn -0.124147 0.150526 -0.980780
vn -0.124147 0.150526 -0.980780
vn -0.124147 0.150526 -0.980780
vn 0.124117 -0.150490 -0.980789
vn 0.124117 -0.150490 -0.980789
vn 0.124117 -0.150490 -0.980789
vn 0.124117 -0.150490 -0.980789
vn 0.124117 -0.150490 -0.980789
vn 0.124117 -0.150490 -0.980789
vn 0.353485 -0.428594 -0.831478
vn 0.353485 -0.428594 -0.831478
vn 0.353485 -0.428594 -0.831478
vn 0.353485 -0.428594 -0.831478
vn 0.353485 -0.428594 -0.831478
vn 0.353485 -0.428594 -0.831478
vn 0.529037 -0.641446 -0.555578
vn 0.529037 -0.641446 -0.555578
vn 0.529037 -0.641446 -0.555578
vn 0.529037 -0.641446 -0.555578
vn 0.529037 -0.641446 -0.555578
vn 0.529037 -0.641446 -0.555578
vn 0.624045 -0.756642 -0.195093
vn 0.624045 -0.756642 -0.195093
vn 0.624045 -0.756642 -0.195093
vn 0.624045 -0.756642 -0.195093
vn 0.624045 -0.756642 -0.195093
vn 0.624045 -0.756642 -0.195093
vn 0.991392 -0.022766 0.128936
vn 0.991392 -0.022766 0.128936
vn 0.991392 -0.022766 0.128936
vn 0.990199 -0.044972 -0.132225
vn 0.990199 -0.044972 -0.132225
vn 0.990199 -0.044972 -0.132225
vn 0.920857 0.003137 -0.389887
vn 0.920857 0.003137 -0.389887
vn 0.920857 0.003137 -0.389887
vn 0.785343 0.122084 -0.606904
vn 0.785343 0.122084 -0.606904
vn 0.785343 0.122084 -0.606904
vn 0.597367 0.301048 -0.743318
vn 0.597367 0.301048 -0.743318
vn 0.597367 0.301048 -0.743318
vn 0.384869 0.514946 -0.765968
vn 0.384869 0.514946 -0.765968
vn 0.384869 0.514946 -0.765968
vn 0.186637 0.726635 -0.661187
vn 0.186637 0.726635 -0.661187
vn 0.186637 0.726635 -0.661187
vn 0.042455 0.895306 -0.443423
vn 0.042455 0.895306 -0.443423
vn 0.042455 0.895306 -0.443423
vn -0.019017 0.987893 -0.153967
vn -0.019017 0.987893 -0.153967
vn -0.019017 0.987893 -0.153967
vn 0.011266 0.988574 0.150315
vn 0.011266 0.988574 0.150315
vn 0.011266 0.988574 0.150315
vn 0.121632 0.902352 0.413481
vn 0.121632 0.902352 0.413481
vn 0.121632 0.902352 0.413481
vn 0.121632 0.902352 0.413481
vn 0.121632 0.902352 0.413481
vn 0.121632 0.902352 0.413481
vn 0.286006 0.751134 0.594977
vn 0.286006 0.751134 0.594977
vn 0.286006 0.751134 0.594977
vn 0.286006 0.751134 0.594977
vn 0.286006 0.751134 0.594977
vn 0.286006 0.751134 0.594977
vn 0.473641 0.564812 0.675760
vn 0.473641 0.564812 0.675760
vn 0.473641 0.564812 0.675760
vn 0.656861 0.372679 0.655473
vn 0.656861 0.372679 0.655473
vn 0.656861 0.372679 0.655473
vn 0.814165 0.198952 0.545485
vn 0.814165 0.198952 0.545485
vn 0.814165 0.198952 0.545485
vn 0.929680 0.062304 0.363062
vn 0.929680 0.062304 0.363062
vn 0.929680 0.062304 0.363062
vn 0.999266 0.038313 -0.000029
vn 0.999266 0.038313 -0.000029
vn 0.999266 0.038313 -0.000029
vn 0.887974 0.188541 0.419469
vn 0.887974 0.188541 0.419469
vn 0.887974 0.188541 0.419469
vn 0.608648 0.501929 0.614504
vn 0.608648 0.501929 0.614504
vn 0.608648 0.501929 0.614504
vn 0.094916 0.995485 0.000034
vn 0.094916 0.995485 0.000034
vn 0.094916 0.995485 0.000034
vn 0.206782 0.833898 -0.511717
vn 0.206782 0.833898 -0.511717
vn 0.206782 0.833898 -0.511717
vn 0.552627 0.455804 -0.697743
vn 0.552627 0.455804 -0.697743
vn 0.552627 0.455804 -0.697743
vn 0.879098 0.131018 -0.458280
vn 0.879098 0.131018 -0.458280
vn 0.879098 0.131018 -0.458280
vn -0.581013 -0.282456 0.763310
vn -0.581013 -0.282456 0.763310
vn -0.581013 -0.282456 0.763310
vn -0.581013 -0.282456 0.763310
vn -0.581013 -0.282456 0.763310
vn -0.581013 -0.282456 0.763310
vn -0.759523 -0.066016 0.647122
vn -0.759523 -0.066016 0.647122
vn -0.759523 -0.066016 0.647122
vn -0.759523 -0.066016 0.647122
vn -0.759523 -0.066016 0.647122
vn -0.759523 -0.066016 0.647122
vn -0.896154 0.099646 0.432411
vn -0.896154 0.099646 0.432411
vn -0.896154 0.099646 0.432411
vn -0.896154 0.099646 0.432411
vn -0.896154 0.099646 0.432411
vn -0.896154 0.099646 0.432411
vn -0.970102 0.189307 0.151869
vn -0.970102 0.189307 0.151869
vn -0.970102 0.189307 0.151869
vn -0.970102 0.189307 0.151869
vn -0.970102 0.189307 0.151869
vn -0.970102 0.189307 0.151869
vn -0.970112 0.189318 -0.151795
vn -0.970112 0.189318 -0.151795
vn -0.970112 0.189318 -0.151795
vn -0.970112 0.189318 -0.151795
vn -0.970112 0.189318 -0.151795
vn -0.970112 0.189318 -0.151795
vn -0.896180 0.099677 -0.432350
vn -0.896180 0.099677 -0.432350
vn -0.896180 0.099677 -0.432350
vn -0.896180 0.099677 -0.432350
vn -0.896180 0.099677 -0.432350
vn -0.896180 0.099677 -0.432350
vn -0.759563 -0.065968 -0.647080
vn -0.759563 -0.065968 -0.647080
vn -0.759563 -0.065968 -0.647080
vn -0.759563 -0.065968 -0.647080
vn -0.759563 -0.065968 -0.647080
vn -0.759563 -0.065968 -0.647080
vn -0.581060 -0.282399 -0.763296
vn -0.581060 -0.282399 -0.763296
vn -0.581060 -0.282399 -0.763296
vn -0.581060 -0.282399 -0.763296
vn -0.581060 -0.282399 -0.763296
vn -0.581060 -0.282399 -0.763296
vn -0.387847 -0.516666 -0.763303
vn -0.387847 -0.516666 -0.763303
vn -0.387847 -0.516666 -0.763303
vn -0.387847 -0.516666 -0.763303
vn -0.387847 -0.516666 -0.763303
vn -0.387847 -0.516666 -0.763303
vn -0.209340 -0.733101 -0.647101
vn -0.209340 -0.733101 -0.647101
vn -0.209340 -0.733101 -0.647101
vn -0.209340 -0.733101 -0.647101
vn -0.209340 -0.733101 -0.647101
vn -0.209340 -0.733101 -0.647101
vn 0.001224 -0.988406 -0.151832
vn 0.001224 -0.988406 -0.151832
vn 0.001224 -0.988406 -0.151832
vn 0.001224 -0.988406 -0.151832
vn 0.001224 -0.988406 -0.151832
vn 0.001224 -0.988406 -0.151832
vn -0.072717 -0.898754 -0.432381
vn -0.072717 -0.898754 -0.432381
vn -0.072717 -0.898754 -0.432381
vn -0.072717 -0.898754 -0.432381
vn -0.072717 -0.898754 -0.432381
vn -0.072717 -0.898754 -0.432381
vn 0.771465 0.636271 -0.000000
vn 0.771465 0.636271 -0.000000
vn 0.771465 0.636271 -0.000000
vn 0.771466 0.636271 -0.000000
vn 0.771466 0.636271 -0.000000
vn 0.771465 0.636271 -0.000000
vn 0.771466 0.636271 0.000000
vn 0.771466 0.636271 0.000000
vn 0.771466 0.636271 0.000000
vn 0.771465 0.636272 0.000001
vn 0.771465 0.636272 0.000001
vn 0.771465 0.636272 0.000001
vn 0.771465 0.636272 0.000000
vn 0.771465 0.636272 0.000000
vn 0.771465 0.636272 0.000000
vn 0.771465 0.636272 0.000001
vn 0.771465 0.636272 0.000001
vn 0.771465 0.636272 0.000001
vn 0.771464 0.636274 -0.000004
vn 0.771464 0.636274 -0.000004
vn 0.771463 0.636274 -0.000004
vn 0.771468 0.636268 0.000003
vn 0.771468 0.636268 0.000003
vn 0.771468 0.636268 0.000003
vn 0.771465 0.636272 0.000001
vn 0.771465 0.636272 0.000001
vn 0.771465 0.636272 0.000001
vn -0.771470 -0.636265 0.000015
vn -0.771470 -0.636265 0.000015
vn -0.771470 -0.636265 0.000015
vn -0.771465 -0.636272 -0.000004
vn -0.771465 -0.636272 -0.000004
vn -0.771465 -0.636272 -0.000004
vn -0.771464 -0.636273 0.000006
vn -0.771464 -0.636274 0.000006
vn -0.771464 -0.636274 0.000006
vn -0.771461 -0.636276 0.000005
vn -0.771461 -0.636276 0.000005
vn -0.771462 -0.636276 0.000005
vn -0.771463 -0.636275 0.000005
vn -0.771463 -0.636275 0.000005
vn -0.771463 -0.636275 0.000005
vn -0.771469 -0.636267 0.000001
vn -0.771469 -0.636267 0.000001
vn -0.771469 -0.636267 0.000001
vn -0.771469 -0.636267 -0.000000
vn -0.771469 -0.636267 -0.000000
vn -0.771469 -0.636267 -0.000000
vn -0.771465 -0.636272 0.000015
vn -0.771465 -0.636272 0.000015
vn -0.771465 -0.636272 0.000015
vn -0.771465 -0.636272 -0.000017
vn -0.771465 -0.636271 -0.000017
vn -0.771465 -0.636272 -0.000017
vn -0.771468 -0.636268 -0.000006
vn -0.771468 -0.636268 -0.000006
vn -0.771468 -0.636268 -0.000006
vn -0.771465 -0.636272 -0.000011
vn -0.771465 -0.636272 -0.000011
vn -0.771465 -0.636272 -0.000011
vn -0.771478 -0.636256 -0.000003
vn -0.771478 -0.636256 -0.000003
vn -0.771478 -0.636256 -0.000003
vn -0.771466 -0.636270 -0.000003
vn -0.771466 -0.636270 -0.000003
vn -0.771466 -0.636270 -0.000003
vn -0.771465 -0.636272 0.000012
vn -0.771465 -0.636272 0.000012
vn -0.771465 -0.636272 0.000012
vn -0.771453 -0.636286 0.000006
vn -0.771453 -0.636286 0.000006
vn -0.771453 -0.636286 0.000006
vn -0.771476 -0.636259 -0.000029
vn -0.771476 -0.636259 -0.000029
vn -0.771476 -0.636258 -0.000029
s off
g diamond_Mesh
usemtl initialShadingGroup1
f 43/1/1 2/2/2 1/3/3
f 2/2/4 3/4/5 1/3/6
f 1/1/7 3/1/8 44/1/9
f 3/1/10 4/1/11 44/1/12
f 44/1/13 4/1/14 45/1/15
f 4/1/16 5/1/17 45/1/18
f 45/1/19 5/1/20 46/1/21
f 5/1/22 6/1/23 46/1/24
f 18/1/25 19/1/26 2/1/27
f 2/1/28 19/1/29 3/1/30
f 19/1/31 20/1/32 3/1/33
f 3/1/34 20/1/35 4/1/36
f 20/1/37 21/1/38 4/1/39
f 4/1/40 21/1/41 5/1/42
f 21/1/43 22/1/44 5/1/45
f 5/1/46 22/1/47 6/1/48
f 22/1/49 23/1/50 6/1/51
f 6/1/52 23/1/53 7/1/54
f 23/1/55 24/1/56 7/1/57
f 7/1/58 24/1/59 8/1/60
f 24/1/61 25/1/62 8/1/63
f 8/1/64 25/1/65 9/1/66
f 25/1/67 26/1/68 9/1/69
f 9/1/70 26/1/71 10/1/72
f 26/1/73 27/1/74 10/1/75
f 10/1/76 27/1/77 11/1/78
f 27/1/79 28/1/80 11/1/81
f 11/1/82 28/1/83 12/1/84
f 28/1/85 29/1/86 12/1/87
f 12/1/88 29/1/89 13/1/90
f 29/1/91 30/1/92 13/1/93
f 13/1/94 30/1/95 14/1/96
f 30/1/97 31/1/98 14/1/99
f 14/1/100 31/1/101 15/1/102
f 31/1/103 32/1/104 15/1/105
f 15/1/106 32/1/107 16/1/108
f 32/1/109 33/1/110 16/1/111
f 16/1/112 33/1/113 17/1/114
f 33/1/115 18/1/116 17/1/117
f 17/1/118 18/1/119 2/1/120
f 19/1/121 18/1/122 34/1/123
f 18/1/124 33/1/125 42/1/126
f 33/1/127 32/1/128 42/1/129
f 32/1/130 31/1/131 41/1/132
f 31/1/133 30/1/134 41/1/135
f 30/1/136 29/1/137 40/1/138
f 29/1/139 28/1/140 40/1/141
f 28/1/142 27/1/143 39/1/144
f 27/1/145 26/1/146 39/1/147
f 26/1/148 25/1/149 38/1/150
f 24/1/151 37/1/152 25/1/153
f 25/1/154 37/1/155 38/1/156
f 23/1/157 36/1/158 24/1/159
f 24/1/160 36/1/161 37/1/162
f 23/1/163 22/1/164 36/1/165
f 22/1/166 21/1/167 35/1/168
f 21/1/169 20/1/170 35/1/171
f 20/1/172 19/1/173 34/1/174
f 34/1/175 18/1/176 42/1/177
f 35/5/178 20/6/179 34/7/180
f 36/8/181 22/9/182 35/10/183
f 39/11/184 26/12/185 38/13/186
f 40/14/187 28/15/188 39/16/189
f 41/17/190 30/18/191 40/19/192
f 42/20/193 32/21/194 41/22/195
f 46/23/196 6/24/197 47/25/198
f 6/24/199 7/26/200 47/25/201
f 47/27/202 7/28/203 48/29/204
f 7/28/205 8/30/206 48/29/207
f 48/31/208 8/32/209 49/33/210
f 8/32/211 9/34/212 49/33/213
f 49/35/214 9/36/215 50/37/216
f 9/36/217 10/38/218 50/37/219
f 50/39/220 10/40/221 51/41/222
f 10/40/223 11/42/224 51/41/225
f 51/43/226 11/44/227 52/45/228
f 11/44/229 12/46/230 52/45/231
f 52/47/232 12/48/233 53/49/234
f 12/48/235 13/50/236 53/49/237
f 53/1/238 13/1/239 54/1/240
f 13/1/241 14/1/242 54/1/243
f 54/1/244 14/1/245 55/1/246
f 14/1/247 15/1/248 55/1/249
f 55/1/250 15/1/251 56/1/252
f 15/1/253 16/1/254 56/1/255
f 57/1/256 17/1/257 43/1/258
f 17/1/259 2/1/260 43/1/261
f 56/1/262 16/1/263 57/1/264
f 16/1/265 17/1/266 57/1/267
f 42/51/268 41/52/269 58/53/270
f 34/54/271 42/55/272 58/56/273
f 41/57/274 40/58/275 58/59/276
f 40/60/277 39/61/278 58/62/279
f 39/63/280 38/64/281 58/65/282
f 35/66/283 34/67/284 58/68/285
f 38/69/286 37/70/287 58/71/288
f 37/72/289 36/73/290 58/74/291
f 36/75/292 35/76/293 58/77/294
f 1/78/295 44/79/296 59/80/297
f 43/81/298 1/82/299 59/83/300
f 44/84/301 45/85/302 59/86/303
f 45/87/304 46/88/305 59/89/306
f 46/90/307 47/91/308 59/92/309
f 47/93/310 48/94/311 59/95/312
f 48/96/313 49/97/314 59/98/315
f 49/99/316 50/100/317 59/101/318
f 50/102/319 51/103/320 59/104/321
f 51/105/322 52/106/323 59/107/324
f 52/108/325 53/109/326 59/110/327
f 53/111/328 54/112/329 59/113/330
f 54/114/331 55/115/332 59/116/333
f 57/117/334 43/118/335 59/119/336
f 55/120/337 56/121/338 59/122/339
f 56/123/340 57/124/341 59/125/342
